<svg xmlns="http://www.w3.org/2000/svg" viewBox="0 0 202 202">
  <title>cl-logo-square</title>
  <g>
    <rect x="2.5" y="2.5" width="197" height="197" fill="#008f47" stroke="#008f47" stroke-miterlimit="10" stroke-width="5"/>
    <g>
      <path d="M139.5,137.5C133.44,147,117.06,155,104,155a14.77,14.77,0,0,1-1.64-.08L100,155c-3.83.33-5.5,3.09-5.5,7a7.47,7.47,0,0,0,6,7.33h0l.29.05L104,170c22,0,34-8.12,45.63-21.11l.46-.53a7.42,7.42,0,0,0,1.37-5.12c-.34-3.47-3-8.74-9-7.74l-.74.37a8.71,8.71,0,0,0-2.26,1.63Z" fill="#e6e6e6"/>
      <path d="M139.5,137.5C133.44,147,117.06,155,104,155a14.77,14.77,0,0,1-1.64-.08L100,155c-3.83.33-5.5,3.09-5.5,7a7.47,7.47,0,0,0,6,7.33h0l.29.05L104,170c22,0,34-8.12,45.63-21.11l.46-.53a7.42,7.42,0,0,0,1.37-5.12c-.34-3.47-3-8.74-9-7.74l-.74.37a8.71,8.71,0,0,0-2.26,1.63Z" fill="none" stroke="#e6e6e6" stroke-miterlimit="10" stroke-width="5"/>
    </g>
    <path d="M144.5,54a7.5,7.5,0,0,1-7.5,7.5,7.09,7.09,0,0,1-2.53-.45L134,61c-8.25-6.63-18.8-9.59-30-9.59a11.7,11.7,0,0,0-2.36.2l-2-.13a7.49,7.49,0,0,1-1.12-14.83V36.5l.08,0A32.31,32.31,0,0,1,104,36a61.64,61.64,0,0,1,34.71,10.7h0C141,48,144.5,50.45,144.5,54Z" fill="#e6e6e6" stroke="#e6e6e6" stroke-miterlimit="10" stroke-width="5"/>
    <path d="M79.62,155.7a6.58,6.58,0,0,1-5.77,3.72l-.74,0a6.68,6.68,0,0,1-3.55-.79l-.75-.4c-.18-.1-.37-.21-.54-.32C50.12,146.15,40,127,40,103c0-22.36,9.46-40.16,25.54-52.33l2.35-1.49a7.38,7.38,0,0,1,3.27-.68,6.69,6.69,0,0,1,6.34,6.9c0,2.57.23,3.54-1.33,5l-1,.81c-.63.48-1.25,1-1.85,1.49A52.08,52.08,0,0,0,55,102.7c0,18.58,8.44,34.86,22.57,43.86h0a6.42,6.42,0,0,1,2.84,4.27A8.24,8.24,0,0,1,79.62,155.7Z" fill="#e6e6e6" stroke="#e6e6e6" stroke-miterlimit="10" stroke-width="5"/>
    <path d="M73.31,62.72" fill="#b3b3b3" stroke="#b3b3b3" stroke-miterlimit="10" stroke-width="6"/>
  </g>
</svg>
