<svg xmlns="http://www.w3.org/2000/svg" viewBox="0 0 420.64 160.5">
  <title>cl-logo-alt</title>
  <g>
    <rect x="2.5" y="2.5" width="155.5" height="155.5" fill="#008f47" stroke="#008f47" stroke-miterlimit="10" stroke-width="5"/>
    <g>
      <path d="M122.5,116c-6.06,9.51-22.44,17.5-35.5,17.5a14.77,14.77,0,0,1-1.64-.08L83,133.5c-3.83.33-5.5,3.09-5.5,7a7.47,7.47,0,0,0,6,7.33h0l.29.05,3.21.61c22,0,34-8.12,45.63-21.11l.46-.53a7.42,7.42,0,0,0,1.37-5.12c-.34-3.47-3-8.74-9-7.74l-.74.37A8.71,8.71,0,0,0,122.5,116Z" fill="#e6e6e6"/>
      <path d="M122.5,116c-6.06,9.51-22.44,17.5-35.5,17.5a14.77,14.77,0,0,1-1.64-.08L83,133.5c-3.83.33-5.5,3.09-5.5,7a7.47,7.47,0,0,0,6,7.33h0l.29.05,3.21.61c22,0,34-8.12,45.63-21.11l.46-.53a7.42,7.42,0,0,0,1.37-5.12c-.34-3.47-3-8.74-9-7.74l-.74.37A8.71,8.71,0,0,0,122.5,116Z" fill="none" stroke="#e6e6e6" stroke-miterlimit="10" stroke-width="5"/>
    </g>
    <path d="M127.5,32.5A7.5,7.5,0,0,1,120,40a7.09,7.09,0,0,1-2.53-.45l-.47,0c-8.25-6.63-18.8-9.59-30-9.59a11.7,11.7,0,0,0-2.36.2l-2-.13a7.49,7.49,0,0,1-1.12-14.83V15l.08,0A32.31,32.31,0,0,1,87,14.5a61.64,61.64,0,0,1,34.71,10.7h0C124,26.5,127.5,29,127.5,32.5Z" fill="#e6e6e6" stroke="#e6e6e6" stroke-miterlimit="10" stroke-width="5"/>
    <path d="M62.62,134.2a6.58,6.58,0,0,1-5.77,3.72l-.74,0a6.68,6.68,0,0,1-3.55-.79l-.75-.4c-.18-.1-.37-.21-.54-.32C33.12,124.65,23,105.54,23,81.5c0-22.36,9.46-40.16,25.54-52.33l2.35-1.49A7.38,7.38,0,0,1,54.16,27a6.69,6.69,0,0,1,6.34,6.9c0,2.57.23,3.54-1.33,5l-1,.81c-.63.48-1.25,1-1.85,1.49A52.08,52.08,0,0,0,38,81.2c0,18.58,8.44,34.86,22.57,43.86h0a6.42,6.42,0,0,1,2.84,4.27A8.24,8.24,0,0,1,62.62,134.2Z" fill="#e6e6e6" stroke="#e6e6e6" stroke-miterlimit="10" stroke-width="5"/>
    <path d="M56.31,41.22" fill="#b3b3b3" stroke="#b3b3b3" stroke-miterlimit="10" stroke-width="6"/>
    <text transform="translate(168.33 63.83)" font-size="59" fill="#e6e6e6" font-family="TrebuchetMS-Bold, Trebuchet MS" font-weight="700">Chemical<tspan x="0" y="70.8">Locha</tspan></text>
  </g>
</svg>
