<svg xmlns="http://www.w3.org/2000/svg" viewBox="0 0 216 216">
  <title>cl-logo-circle</title>
  <g>
    <circle cx="108" cy="108" r="105.5" fill="#008f47" stroke="#008f47" stroke-miterlimit="10" stroke-width="5"/>
    <g>
      <path d="M144,143c-6.06,9.51-22.44,17.5-35.5,17.5a14.77,14.77,0,0,1-1.64-.08l-2.36.08c-3.83.33-5.5,3.09-5.5,7a7.47,7.47,0,0,0,6,7.33h0l.29.05,3.21.61c22,0,34-8.12,45.63-21.11l.46-.53a7.42,7.42,0,0,0,1.37-5.12c-.34-3.47-3-8.74-9-7.74l-.74.37A8.71,8.71,0,0,0,144,143Z" fill="#e6e6e6"/>
      <path d="M144,143c-6.06,9.51-22.44,17.5-35.5,17.5a14.77,14.77,0,0,1-1.64-.08l-2.36.08c-3.83.33-5.5,3.09-5.5,7a7.47,7.47,0,0,0,6,7.33h0l.29.05,3.21.61c22,0,34-8.12,45.63-21.11l.46-.53a7.42,7.42,0,0,0,1.37-5.12c-.34-3.47-3-8.74-9-7.74l-.74.37A8.71,8.71,0,0,0,144,143Z" fill="none" stroke="#e6e6e6" stroke-miterlimit="10" stroke-width="5"/>
    </g>
    <path d="M149,59.5a7.5,7.5,0,0,1-7.5,7.5,7.09,7.09,0,0,1-2.53-.45l-.47,0c-8.25-6.63-18.8-9.59-30-9.59a11.7,11.7,0,0,0-2.36.2l-2-.13A7.49,7.49,0,0,1,103,42.15V42l.08,0a32.31,32.31,0,0,1,5.42-.45,61.64,61.64,0,0,1,34.71,10.7h0C145.5,53.5,149,56,149,59.5Z" fill="#e6e6e6" stroke="#e6e6e6" stroke-miterlimit="10" stroke-width="5"/>
    <path d="M84.12,161.2a6.58,6.58,0,0,1-5.77,3.72l-.74,0a6.68,6.68,0,0,1-3.55-.79l-.75-.4c-.18-.1-.37-.21-.54-.32C54.62,151.65,44.5,132.54,44.5,108.5,44.5,86.14,54,68.34,70,56.17l2.35-1.49A7.38,7.38,0,0,1,75.66,54,6.69,6.69,0,0,1,82,60.9c0,2.57.23,3.54-1.33,5l-1,.81c-.63.48-1.25,1-1.85,1.49a52.08,52.08,0,0,0-18.31,40c0,18.58,8.44,34.86,22.57,43.86h0a6.42,6.42,0,0,1,2.84,4.27A8.24,8.24,0,0,1,84.12,161.2Z" fill="#e6e6e6" stroke="#e6e6e6" stroke-miterlimit="10" stroke-width="5"/>
    <path d="M77.81,68.22" fill="#008f47" stroke="#008f47" stroke-miterlimit="10" stroke-width="5"/>
  </g>
</svg>
