<svg xmlns="http://www.w3.org/2000/svg" viewBox="0 0 535.46 206">
  <title>logo</title>
  <g>
    <path d="M0,0V206H206V0ZM191,191H15V15H191Z" fill="#108f47"/>
    <g>
      <path d="M160.25,144.66A64.59,64.59,0,0,1,84.91,162l4.93-4.93,5-5a51.75,51.75,0,0,0,52.67-12.56c.73-.72,1.43-1.47,2.11-2.23l5.29,3.68Z" fill="#108f47"/>
      <g>
        <path d="M67.82,131.35l-9.24,9.24A64.61,64.61,0,0,1,52,76.91l4.93,4.93,5,5A51.76,51.76,0,0,0,59.36,103,51.22,51.22,0,0,0,67.82,131.35Z" fill="#108f47"/>
        <path d="M140.57,45.66,137,51.1l-3.5,5.41a51.8,51.8,0,0,0-50.89,3.31l-9.24-9.24a64.58,64.58,0,0,1,67.16-4.92Z" fill="#108f47"/>
      </g>
    </g>
    <g>
      <path d="M279.3,71.95a33.49,33.49,0,0,1-14.43,3,26.22,26.22,0,0,1-10.51-2,23.4,23.4,0,0,1-8.06-5.67,25.29,25.29,0,0,1-5.14-8.63,31.88,31.88,0,0,1-1.81-10.92,34.09,34.09,0,0,1,1.92-11.59,27.54,27.54,0,0,1,5.5-9.32,25.44,25.44,0,0,1,8.66-6.2,27.87,27.87,0,0,1,11.41-2.25,34.08,34.08,0,0,1,12.45,2.14v5.42a27.59,27.59,0,0,0-12.53-2.94,22.89,22.89,0,0,0-9.41,1.83,19.51,19.51,0,0,0-6.93,5.1,22.61,22.61,0,0,0-4.3,7.71,30.52,30.52,0,0,0-1.49,9.72A29.16,29.16,0,0,0,246,56.2a21.47,21.47,0,0,0,3.94,7.31,18.71,18.71,0,0,0,6.49,5,20.94,20.94,0,0,0,9,1.83A28.08,28.08,0,0,0,279.3,67Z" fill="#108f47"/>
      <path d="M316.47,74V51q0-6.57-2.36-9.68t-7.35-3.11a10.93,10.93,0,0,0-8.23,3.7A13.53,13.53,0,0,0,296,46.27a16.72,16.72,0,0,0-1,5.82V74h-4.87V16.09H295V41.63h.15Q299.75,34,308.28,34q6.51,0,9.79,4t3.28,11.84V74Z" fill="#108f47"/>
      <path d="M335.4,55.3a21.93,21.93,0,0,0,1,6.45A13.68,13.68,0,0,0,339,66.6a11.29,11.29,0,0,0,4.17,3,14,14,0,0,0,5.54,1,19.8,19.8,0,0,0,12.45-4.62v4.81a22.67,22.67,0,0,1-13.56,4,17.87,17.87,0,0,1-7.12-1.37,14.77,14.77,0,0,1-5.45-4,18.24,18.24,0,0,1-3.47-6.43,28.59,28.59,0,0,1-1.22-8.71,24.06,24.06,0,0,1,1.33-8.13,20.07,20.07,0,0,1,3.69-6.47,17,17,0,0,1,5.6-4.28A16.22,16.22,0,0,1,348,34a15.93,15.93,0,0,1,6.67,1.32A13.09,13.09,0,0,1,359.56,39a17,17,0,0,1,3,6,28,28,0,0,1,1,7.86V55.3ZM358.56,51q-.11-6.11-2.89-9.47a9.49,9.49,0,0,0-7.73-3.36,11.84,11.84,0,0,0-4.59.88,10.93,10.93,0,0,0-3.71,2.54,13.7,13.7,0,0,0-2.65,4A20.34,20.34,0,0,0,335.51,51Z" fill="#108f47"/>
      <path d="M422.16,74V51a28.14,28.14,0,0,0-.53-5.94,10.38,10.38,0,0,0-1.66-4,6.44,6.44,0,0,0-2.86-2.21A11.2,11.2,0,0,0,413,38.2a8.48,8.48,0,0,0-4,1A10.71,10.71,0,0,0,405.61,42a13.58,13.58,0,0,0-2.25,4.18,16,16,0,0,0-.82,5.19V74h-4.87V50.49q0-12.29-9.41-12.29a8.6,8.6,0,0,0-4,1A10.09,10.09,0,0,0,381,41.9a13.08,13.08,0,0,0-2.17,4.22,17.94,17.94,0,0,0-.78,5.44V74h-4.87V34.88H378v6.34h.15q4.11-7.25,12-7.25a11.84,11.84,0,0,1,3.88.63,11.28,11.28,0,0,1,3.28,1.76A11.47,11.47,0,0,1,399.82,39a12.13,12.13,0,0,1,1.58,3.44,15.7,15.7,0,0,1,5.35-6.34A13.21,13.21,0,0,1,414.2,34Q427,34,427,49.84V74Z" fill="#108f47"/>
      <path d="M441.16,25a3.39,3.39,0,0,1-2.44-1,3.35,3.35,0,0,1-1-2.52,3.25,3.25,0,0,1,1-2.46,3.42,3.42,0,0,1,2.44-1,3.8,3.8,0,0,1,1.37.25,3.32,3.32,0,0,1,1.12.71,3.49,3.49,0,0,1,.76,1.09,3.32,3.32,0,0,1,.29,1.39,3.58,3.58,0,0,1-.27,1.37,3.27,3.27,0,0,1-.76,1.13,3.68,3.68,0,0,1-1.12.74A3.51,3.51,0,0,1,441.16,25Zm-2.4,49V34.88h4.88V74Z" fill="#108f47"/>
      <path d="M482.14,72.22a20.4,20.4,0,0,1-10.51,2.71,18,18,0,0,1-7.54-1.45,16.53,16.53,0,0,1-5.71-4.14,18.41,18.41,0,0,1-3.62-6.26,23.7,23.7,0,0,1-1.26-7.85A25.24,25.24,0,0,1,454.84,47a19.77,19.77,0,0,1,3.88-6.76A18.39,18.39,0,0,1,465,35.64,20.23,20.23,0,0,1,473.42,34a20.6,20.6,0,0,1,8.84,1.87V41A16.37,16.37,0,0,0,473,38.2a13.92,13.92,0,0,0-6.17,1.32,13.28,13.28,0,0,0-4.55,3.59,16.11,16.11,0,0,0-2.82,5.31,21,21,0,0,0-1,6.43,21.7,21.7,0,0,0,.82,6,14.88,14.88,0,0,0,2.51,5.06,12.27,12.27,0,0,0,4.29,3.49,13.44,13.44,0,0,0,6.09,1.3,16.19,16.19,0,0,0,9.9-3.28Z" fill="#108f47"/>
      <path d="M514,74V67h-.15a14.34,14.34,0,0,1-5.2,5.8,13.75,13.75,0,0,1-7.45,2.06,15.18,15.18,0,0,1-5.08-.8,10.9,10.9,0,0,1-3.85-2.27,10,10,0,0,1-2.44-3.53,11.7,11.7,0,0,1-.86-4.54,11.19,11.19,0,0,1,3.28-8.46q3.28-3.15,9.9-4.1L514,49.46q0-11.26-8.72-11.26a19,19,0,0,0-12.64,5V37.85a16.35,16.35,0,0,1,2.76-1.58A25.32,25.32,0,0,1,498.64,35a26.76,26.76,0,0,1,3.52-.8,22.5,22.5,0,0,1,3.52-.29q6.51,0,9.84,3.67t3.33,10.92V74ZM503.93,55a30.5,30.5,0,0,0-4.49,1,9.24,9.24,0,0,0-3.08,1.55,5.77,5.77,0,0,0-1.79,2.41,9.57,9.57,0,0,0-.57,3.53,7.5,7.5,0,0,0,.55,2.9,6.48,6.48,0,0,0,1.6,2.31,7.26,7.26,0,0,0,2.55,1.51,10.14,10.14,0,0,0,3.41.53,11.23,11.23,0,0,0,8.51-3.74,12.77,12.77,0,0,0,2.47-4.2,15.31,15.31,0,0,0,.9-5.31V53.58Z" fill="#108f47"/>
      <path d="M530.59,74V16.09h4.88V74Z" fill="#108f47"/>
      <path d="M242.58,167.8V113.05h5.07v50.13h21.94v4.62Z" fill="#108f47"/>
      <path d="M294,168.72a19.9,19.9,0,0,1-7.79-1.45,16.64,16.64,0,0,1-5.88-4.1,18.09,18.09,0,0,1-3.73-6.36,24.73,24.73,0,0,1-1.29-8.21,26,26,0,0,1,1.37-8.74,18.41,18.41,0,0,1,3.9-6.55,16.68,16.68,0,0,1,6.11-4.1,21.63,21.63,0,0,1,8-1.41,19.88,19.88,0,0,1,7.62,1.39,15.56,15.56,0,0,1,5.75,4,18,18,0,0,1,3.62,6.41,27.17,27.17,0,0,1,1.26,8.59,25.16,25.16,0,0,1-1.31,8.34,18.85,18.85,0,0,1-3.75,6.47,16.6,16.6,0,0,1-5.94,4.2A20.08,20.08,0,0,1,294,168.72Zm.38-36.69a14.59,14.59,0,0,0-5.79,1.11,12.15,12.15,0,0,0-4.44,3.23,14.6,14.6,0,0,0-2.84,5.19,22.67,22.67,0,0,0-1,7,20.61,20.61,0,0,0,1,6.6,14.91,14.91,0,0,0,2.8,5,12.07,12.07,0,0,0,4.4,3.23,15.69,15.69,0,0,0,11.58,0,11.44,11.44,0,0,0,4.27-3.17,14,14,0,0,0,2.65-5.1,24.18,24.18,0,0,0,.9-6.87q0-7.9-3.5-12.08T294.34,132Z" fill="#108f47"/>
      <path d="M348.65,166a20.4,20.4,0,0,1-10.51,2.71,18,18,0,0,1-7.54-1.45,16.53,16.53,0,0,1-5.71-4.14,18.4,18.4,0,0,1-3.62-6.26,23.7,23.7,0,0,1-1.26-7.85,25.23,25.23,0,0,1,1.33-8.27,19.77,19.77,0,0,1,3.88-6.76,18.39,18.39,0,0,1,6.25-4.56,20.22,20.22,0,0,1,8.46-1.68,20.6,20.6,0,0,1,8.84,1.87v5.19a16.38,16.38,0,0,0-9.22-2.83,13.92,13.92,0,0,0-6.17,1.32,13.28,13.28,0,0,0-4.55,3.59,16.08,16.08,0,0,0-2.82,5.31,21,21,0,0,0-1,6.43,21.68,21.68,0,0,0,.82,6,14.88,14.88,0,0,0,2.51,5.06,12.26,12.26,0,0,0,4.28,3.49,13.44,13.44,0,0,0,6.09,1.3,16.19,16.19,0,0,0,9.9-3.28Z" fill="#108f47"/>
      <path d="M384.34,167.8v-23q0-6.57-2.36-9.68T374.63,132a10.93,10.93,0,0,0-8.23,3.7,13.53,13.53,0,0,0-2.55,4.37,16.72,16.72,0,0,0-1,5.82V167.8H358V109.92h4.88v25.54H363q4.57-7.67,13.1-7.67,6.51,0,9.79,4t3.28,11.84V167.8Z" fill="#108f47"/>
      <path d="M423.42,167.8v-6.95h-.15a14.34,14.34,0,0,1-5.2,5.8,13.75,13.75,0,0,1-7.45,2.06,15.18,15.18,0,0,1-5.08-.8,10.9,10.9,0,0,1-3.85-2.27,10,10,0,0,1-2.44-3.53,11.72,11.72,0,0,1-.86-4.54,11.18,11.18,0,0,1,3.28-8.46q3.28-3.15,9.9-4.1l11.84-1.72q0-11.26-8.72-11.26A19,19,0,0,0,402,137v-5.35a16.35,16.35,0,0,1,2.76-1.58,25.32,25.32,0,0,1,3.26-1.22,26.76,26.76,0,0,1,3.52-.8,22.5,22.5,0,0,1,3.52-.29q6.51,0,9.84,3.67t3.33,10.92V167.8Zm-10.05-19a30.5,30.5,0,0,0-4.49,1,9.24,9.24,0,0,0-3.08,1.55,5.77,5.77,0,0,0-1.79,2.41,9.57,9.57,0,0,0-.57,3.53,7.5,7.5,0,0,0,.55,2.9,6.48,6.48,0,0,0,1.6,2.31,7.26,7.26,0,0,0,2.55,1.51,10.14,10.14,0,0,0,3.41.53,11.23,11.23,0,0,0,8.51-3.74,12.77,12.77,0,0,0,2.47-4.2,15.31,15.31,0,0,0,.9-5.31v-3.86Z" fill="#108f47"/>
    </g>
  </g>
</svg>
