<svg xmlns="http://www.w3.org/2000/svg" viewBox="0 0 206 206">
  <title>logo-img</title>
  <g>
    <path d="M0,0V206H206V0ZM191,191H15V15H191Z" fill="#108f47"/>
    <g>
      <path d="M160.25,144.66A64.59,64.59,0,0,1,84.91,162l4.93-4.93,5-5a51.75,51.75,0,0,0,52.67-12.56c.73-.72,1.43-1.47,2.11-2.23l5.29,3.68Z" fill="#108f47"/>
      <g>
        <path d="M67.82,131.35l-9.24,9.24A64.61,64.61,0,0,1,52,76.91l4.93,4.93,5,5A51.76,51.76,0,0,0,59.36,103,51.22,51.22,0,0,0,67.82,131.35Z" fill="#108f47"/>
        <path d="M140.57,45.66,137,51.1l-3.5,5.41a51.8,51.8,0,0,0-50.89,3.31l-9.24-9.24a64.58,64.58,0,0,1,67.16-4.92Z" fill="#108f47"/>
      </g>
    </g>
  </g>
</svg>
